<svg width="350" height="283" viewBox="0 0 350 283" fill="none" xmlns="http://www.w3.org/2000/svg">
<g clip-path="url(#clip0_1_683)">
<path d="M99.7055 190.12C121.899 190.12 139.891 172.102 139.891 149.876C139.891 127.65 121.899 109.632 99.7055 109.632C77.5117 109.632 59.52 127.65 59.52 149.876C59.52 172.102 77.5117 190.12 99.7055 190.12Z" fill="#E6E6E6"/>
<path d="M88.8482 208.642L98.7333 214.777V173.311L87.6533 166.435C86.7373 165.867 86.0679 164.975 85.7778 163.935C86.8364 163.733 87.9322 163.936 88.8482 164.504L98.7333 170.639V154.559C98.7333 151.449 99.1143 148.35 99.8676 145.332C100.621 148.35 101.002 151.449 101.002 154.559V180.804L115.585 171.754C116.75 171.031 118.097 170.659 119.467 170.681C118.877 171.92 117.945 172.962 116.78 173.685L101.002 183.476V282.367H98.7333V217.449L87.6533 210.574C86.7373 210.005 86.0679 209.113 85.7778 208.073C86.8363 207.871 87.9322 208.074 88.8482 208.642Z" fill="#CCCCCC"/>
<path d="M40.1855 193.536C62.3793 193.536 80.371 175.519 80.371 153.293C80.371 131.067 62.3793 113.049 40.1855 113.049C17.9917 113.049 0 131.067 0 153.293C0 175.519 17.9917 193.536 40.1855 193.536Z" fill="#E6E6E6"/>
<path d="M51.0427 212.059L41.1576 218.194V176.728L52.2376 169.852C53.1536 169.284 53.823 168.391 54.113 167.352C53.0545 167.15 51.9587 167.353 51.0427 167.921L41.1576 174.055V157.976C41.1576 154.866 40.7767 151.767 40.0233 148.749C39.27 151.767 38.8891 154.866 38.8891 157.976V184.22L24.3058 175.171C23.1414 174.448 21.794 174.076 20.4243 174.098C21.0139 175.337 21.9464 176.379 23.1109 177.102L38.8891 186.893V281.756H41.1576V220.866L52.2376 213.99C53.1536 213.422 53.823 212.53 54.113 211.49C53.0546 211.288 51.9587 211.491 51.0427 212.059Z" fill="#CCCCCC"/>
<path d="M69.3768 138.579C107.589 138.579 138.566 107.557 138.566 69.2895C138.566 31.022 107.589 0 69.3768 0C31.1646 0 0.1875 31.022 0.1875 69.2895C0.1875 107.557 31.1646 138.579 69.3768 138.579Z" fill="#E6E6E6"/>
<path d="M88.0704 170.471L71.0508 181.032V109.639L90.1277 97.8006C91.7049 96.8219 92.8574 95.2855 93.3568 93.4959L93.3568 93.4959H93.3568C91.5343 93.1473 89.6475 93.497 88.0704 94.4757L71.0508 105.037V77.3533C71.0508 71.9976 70.3949 66.6622 69.0979 61.4665C67.8008 66.6622 67.1449 71.9976 67.1449 77.3533V122.539L42.0362 106.957C40.0313 105.713 37.7116 105.072 35.3533 105.111C36.3684 107.243 37.974 109.038 39.9789 110.282L67.1449 127.141V281.908H71.0508V185.634L90.1277 173.795C91.7049 172.817 92.8574 171.28 93.3568 169.491L93.3568 169.491H93.3568C91.5343 169.142 89.6475 169.492 88.0704 170.471Z" fill="#CCCCCC"/>
<path d="M350 281.781H13.8821V282.609H350V281.781Z" fill="#3F3D56"/>
<path d="M265.803 66.6563H264.865V19.4737C264.865 15.1923 263.166 11.0863 260.143 8.05893C257.12 5.03157 253.02 3.33081 248.745 3.33081H143.821C139.546 3.33081 135.446 5.03157 132.423 8.05893C129.4 11.0863 127.701 15.1923 127.701 19.4737V40.1462H127.346C127.095 40.1462 126.854 40.2461 126.676 40.4239C126.499 40.6017 126.399 40.8428 126.399 41.0943V50.3396C126.399 50.591 126.499 50.8322 126.676 51.01C126.854 51.1878 127.095 51.2877 127.346 51.2877H127.701V60.5412H127.263C127.139 60.5412 127.016 60.5658 126.901 60.6134C126.786 60.661 126.682 60.7309 126.594 60.8189C126.506 60.907 126.436 61.0115 126.388 61.1265C126.341 61.2416 126.316 61.3649 126.316 61.4894V78.9861C126.316 79.2376 126.416 79.4787 126.594 79.6565C126.771 79.8343 127.012 79.9342 127.263 79.9342H127.701V86.7202H127.305C127.18 86.7202 127.057 86.7447 126.942 86.7923C126.827 86.84 126.723 86.9098 126.635 86.9978C126.547 87.0858 126.477 87.1903 126.43 87.3053C126.382 87.4204 126.358 87.5436 126.358 87.6681V105.331C126.358 105.582 126.458 105.823 126.635 106.001C126.813 106.179 127.053 106.279 127.305 106.279H127.701V266.354C127.701 270.636 129.4 274.742 132.423 277.769C135.446 280.797 139.546 282.498 143.821 282.498H248.745C253.02 282.498 257.12 280.797 260.144 277.769C263.167 274.742 264.865 270.636 264.865 266.354V100.495H265.803C266.054 100.495 266.295 100.395 266.473 100.217C266.65 100.039 266.75 99.7983 266.75 99.5469V67.6044C266.75 67.353 266.65 67.1118 266.473 66.934C266.295 66.7562 266.054 66.6563 265.803 66.6563Z" fill="#3F3D56"/>
<path d="M200.606 15.768H184.651C184.172 15.7675 183.713 15.5768 183.375 15.2377C183.036 14.8985 182.845 14.4387 182.845 13.9591V13.2673C182.845 12.7876 183.036 12.3278 183.375 11.9887C183.713 11.6495 184.172 11.4588 184.651 11.4583H200.606C201.085 11.4588 201.544 11.6495 201.882 11.9887C202.221 12.3278 202.412 12.7876 202.412 13.2673V13.9591C202.412 14.4387 202.221 14.8985 201.883 15.2377C201.544 15.5768 201.085 15.7675 200.606 15.768Z" fill="white"/>
<path d="M207.307 15.8262C208.527 15.8262 209.515 14.8363 209.515 13.6153C209.515 12.3942 208.527 11.4044 207.307 11.4044C206.088 11.4044 205.1 12.3942 205.1 13.6153C205.1 14.8363 206.088 15.8262 207.307 15.8262Z" fill="white"/>
<path d="M245.5 10.6011H229.79V12.4932C229.79 14.8761 228.845 17.1613 227.162 18.8462C225.48 20.5311 223.198 21.4776 220.818 21.4776H170.769C169.591 21.4782 168.425 21.2465 167.337 20.7957C166.248 20.3449 165.26 19.6838 164.427 18.8503C163.594 18.0168 162.933 17.0271 162.481 15.9378C162.03 14.8485 161.798 13.6808 161.797 12.5015V10.6011H147.067C144.177 10.6011 141.407 11.7505 139.364 13.7965C137.321 15.8424 136.173 18.6174 136.173 21.5108V264.313C136.173 267.207 137.321 269.982 139.364 272.028C141.407 274.074 144.177 275.223 147.067 275.223H245.5C248.388 275.223 251.158 274.074 253.2 272.029C255.243 269.984 256.39 267.21 256.39 264.318V21.5108C256.39 20.0786 256.109 18.6604 255.562 17.3371C255.016 16.0138 254.214 14.8113 253.203 13.7982C252.192 12.7852 250.992 11.9814 249.671 11.4328C248.35 10.8843 246.934 10.6017 245.504 10.6011H245.5Z" fill="white"/>
<path d="M217.366 245.76H175.196C172.181 245.76 169.289 244.561 167.157 242.425C165.025 240.29 163.827 237.394 163.827 234.374C163.827 231.355 165.025 228.459 167.157 226.323C169.289 224.188 172.181 222.989 175.196 222.989H217.366C220.382 222.989 223.274 224.188 225.406 226.323C227.538 228.459 228.736 231.355 228.736 234.374C228.736 237.394 227.538 240.29 225.406 242.425C223.274 244.561 220.382 245.76 217.366 245.76Z" fill="#C2F1FB"/>
<path d="M233.903 152.236H158.659C157.617 152.236 156.618 151.822 155.882 151.084C155.145 150.346 154.731 149.346 154.731 148.303C154.731 147.259 155.145 146.259 155.882 145.521C156.618 144.784 157.617 144.369 158.659 144.369H233.903C234.945 144.369 235.944 144.784 236.681 145.521C237.417 146.259 237.831 147.259 237.831 148.303C237.831 149.346 237.417 150.346 236.681 151.084C235.944 151.822 234.945 152.236 233.903 152.236Z" fill="#E6E6E6"/>
<path d="M233.903 163.829H158.659C157.617 163.829 156.618 163.414 155.882 162.677C155.145 161.939 154.731 160.939 154.731 159.895C154.731 158.852 155.145 157.852 155.882 157.114C156.618 156.377 157.617 155.962 158.659 155.962H233.903C234.945 155.962 235.944 156.377 236.681 157.114C237.417 157.852 237.831 158.852 237.831 159.895C237.831 160.939 237.417 161.939 236.681 162.677C235.944 163.414 234.945 163.829 233.903 163.829Z" fill="#E6E6E6"/>
<path d="M233.903 175.421H158.659C157.617 175.421 156.618 175.007 155.882 174.269C155.145 173.532 154.731 172.531 154.731 171.488C154.731 170.445 155.145 169.445 155.882 168.707C156.618 167.969 157.617 167.555 158.659 167.555H233.903C234.945 167.555 235.944 167.969 236.681 168.707C237.417 169.445 237.831 170.445 237.831 171.488C237.831 172.531 237.417 173.532 236.681 174.269C235.944 175.007 234.945 175.421 233.903 175.421Z" fill="#E6E6E6"/>
<path d="M233.903 187.014H158.659C157.617 187.014 156.618 186.6 155.882 185.862C155.145 185.125 154.731 184.124 154.731 183.081C154.731 182.038 155.145 181.037 155.882 180.3C156.618 179.562 157.617 179.148 158.659 179.148H233.903C234.945 179.148 235.944 179.562 236.681 180.3C237.417 181.037 237.831 182.038 237.831 183.081C237.831 184.124 237.417 185.125 236.681 185.862C235.944 186.6 234.945 187.014 233.903 187.014Z" fill="#E6E6E6"/>
<path d="M182.638 198.607H158.659C157.617 198.607 156.618 198.193 155.882 197.455C155.145 196.717 154.731 195.717 154.731 194.674C154.731 193.631 155.145 192.63 155.882 191.893C156.618 191.155 157.617 190.741 158.659 190.741H182.638C183.68 190.741 184.679 191.155 185.415 191.893C186.152 192.63 186.566 193.631 186.566 194.674C186.566 195.717 186.152 196.717 185.415 197.455C184.679 198.193 183.68 198.607 182.638 198.607H182.638Z" fill="#E6E6E6"/>
<path d="M245.68 120.003H146.882C146.009 120.002 145.172 119.654 144.554 119.036C143.936 118.418 143.589 117.579 143.588 116.704V43.2717C143.589 42.397 143.936 41.5585 144.554 40.9401C145.172 40.3216 146.009 39.9737 146.882 39.9728H245.68C246.553 39.9738 247.391 40.3216 248.008 40.9401C248.626 41.5585 248.973 42.397 248.974 43.2717V116.704C248.973 117.579 248.626 118.418 248.008 119.036C247.391 119.654 246.553 120.002 245.68 120.003Z" fill="#E6E6E6"/>
<g opacity="0.1">
<path d="M263.18 99.0417C263.18 98.4731 263.18 97.9017 263.18 97.3276C263.157 97.7703 263.157 98.2139 263.18 98.6566C263.176 98.785 263.18 98.9133 263.18 99.0417Z" fill="black"/>
</g>
<path d="M279.661 131.598C285.652 131.598 290.509 126.735 290.509 120.735C290.509 114.735 285.652 109.871 279.661 109.871C273.67 109.871 268.813 114.735 268.813 120.735C268.813 126.735 273.67 131.598 279.661 131.598Z" fill="#FFB8B8"/>
<path d="M307.874 208.826C308.298 208.438 308.631 207.961 308.85 207.43C309.07 206.899 309.171 206.326 309.145 205.752C309.12 205.177 308.969 204.616 308.703 204.106C308.438 203.597 308.064 203.151 307.608 202.802L306.129 189.644L297.891 191.896L301.902 203.739C301.367 204.545 301.146 205.519 301.28 206.478C301.415 207.436 301.896 208.312 302.632 208.939C303.368 209.566 304.308 209.901 305.274 209.88C306.241 209.859 307.166 209.484 307.874 208.826V208.826Z" fill="#FFB8B8"/>
<path d="M313.893 275.445L318.44 272.5L309.26 253.536L302.55 257.883L313.893 275.445Z" fill="#FFB8B8"/>
<path d="M329.939 271.048L315.65 280.304L312.079 274.775L321.054 268.962C321.751 268.51 322.531 268.2 323.349 268.049C324.166 267.899 325.006 267.912 325.818 268.086C326.631 268.261 327.401 268.594 328.085 269.067C328.77 269.539 329.354 270.142 329.805 270.841L329.939 271.048Z" fill="#2F2E41"/>
<path d="M273.628 277.372H279.043L281.62 256.456H273.628V277.372Z" fill="#FFB8B8"/>
<path d="M289.486 282.407H272.468V275.823H283.157C284.836 275.823 286.446 276.491 287.633 277.679C288.819 278.868 289.486 280.48 289.486 282.161V282.407V282.407Z" fill="#2F2E41"/>
<path d="M295.36 142.305C294.64 144.654 297.193 147.21 298.017 149.518C298.841 151.825 299.949 154.046 300.395 156.461C300.7 158.122 307.607 194.8 307.275 197.034C305.149 196.396 302.859 196.606 300.884 197.621C299.504 195.193 298.675 192.492 298.455 189.707C298.372 188.056 298.388 186.402 298.502 184.753C298.717 180.087 296.697 175.414 296.63 170.745C296.651 169.126 296.523 167.509 296.248 165.914C296.027 164.817 296.047 162.764 295.809 161.671C295.431 159.933 297.059 159.132 296.968 157.35L296.472 147.622C296.369 145.918 294.66 143.828 295.36 142.305Z" fill="#2F2E41"/>
<path d="M270.869 183.12C269.128 185.84 265.463 186.429 262.9 188.377C258.982 191.372 268.976 258.65 272.275 270.602C280.98 269.294 281.285 269.299 282.286 268.858C283.287 268.418 284.192 234.245 286.308 227.201C290.266 230.938 302.726 263.048 305.354 270.166C315.801 267.551 305.355 270.166 318.847 266.679C318.734 264.212 298.908 183.822 298.186 177.489C289.115 179.298 279.914 181.316 270.869 183.12Z" fill="#2F2E41"/>
<path d="M269.696 132.601C268.621 135.791 270.084 148.203 270.192 150.994C270.346 153.527 270.346 156.068 270.192 158.601C269.82 162.989 268.517 167.407 269.391 171.721C269.964 174.575 270.982 177.229 271.22 180.134C271.381 182.146 271.33 184.193 271.967 186.101C274.312 185.095 295.099 181.636 296.627 179.624C295.582 174.569 296.593 169.349 295.9 164.234C295.498 161.285 294.503 158.447 294.034 155.512C293.455 151.889 293.699 148.132 292.644 144.613C292.059 142.832 291.316 141.106 290.423 139.458C289.515 137.582 288.376 136.042 287.986 136.043C286.998 136.096 269.759 132.317 269.696 132.601Z" fill="#C2F1FB"/>
<path d="M265.716 208.553C265.716 208.553 269.321 201.351 269.502 197.232C269.565 195.752 273.611 189.865 275.434 188.53C279.755 185.36 282.94 164.113 281.48 158.957C278.954 150.044 274.7 141.735 270.382 133.544C270.254 133.238 270.046 132.973 269.78 132.775C268.902 132.229 267.951 133.305 267.351 134.147C265.318 137.002 261.968 138.528 258.9 140.216C255.832 141.903 252.693 144.15 251.765 147.528C251.142 149.796 251.628 152.201 252.1 154.499C252.573 156.797 254.224 158.622 255.473 160.557C256.921 162.693 260.684 172.166 260.655 173.291C260.729 180.241 260.799 187.215 259.958 194.119C259.486 198.02 259.071 205.859 259.071 205.859L265.716 208.553Z" fill="#2F2E41"/>
<path d="M298.449 201.106C291.813 185.981 292.185 168.769 287.968 152.802C286.715 148.062 285.04 143.298 285.342 138.404C285.395 137.529 285.58 136.546 286.31 136.056C286.96 135.62 287.844 135.737 288.557 136.056C289.271 136.375 289.881 136.895 290.567 137.25C291.676 137.817 292.966 137.978 294.031 138.619C295.612 139.572 296.419 141.383 297.126 143.087C298.636 146.727 300.14 150.467 300.261 154.412C300.516 162.073 297.122 169.436 298.891 176.887C299.272 178.356 299.729 179.805 300.258 181.227C302.031 186.367 303.485 191.611 304.612 196.93C304.81 197.839 298.727 201.743 298.449 201.106Z" fill="#2F2E41"/>
<path d="M277.384 197.527C277.472 196.959 277.436 196.379 277.276 195.826C277.116 195.274 276.838 194.764 276.46 194.331C276.082 193.898 275.614 193.554 275.089 193.322C274.564 193.09 273.994 192.976 273.42 192.988L264.063 183.633L259.031 190.542L269.547 197.287C269.631 198.251 270.066 199.151 270.768 199.815C271.471 200.48 272.393 200.863 273.359 200.893C274.325 200.922 275.268 200.596 276.01 199.976C276.751 199.355 277.24 198.484 277.384 197.527Z" fill="#FFB8B8"/>
<path d="M247.568 176.283C247.722 177.688 259.511 192.511 265.917 197.349C265.546 195.44 270.567 189.214 272.191 188.242C268.131 184.406 259.649 175.511 259.369 175.025C258.451 173.25 259.369 171.13 260.169 169.296C262.692 163.462 263.881 156.844 262.263 150.695C261.653 148.387 260.588 146.076 258.649 144.657C257.801 144.04 256.656 143.617 255.714 144.087C255.32 144.314 254.978 144.621 254.71 144.989C251.705 148.649 247.454 175.24 247.568 176.283Z" fill="#2F2E41"/>
<path d="M275.037 130.241C275.671 127.55 272.469 121.759 273.102 119.068C273.531 117.245 277.811 118.484 278.809 116.901C279.808 115.318 281.481 114.036 283.351 114.015C285.5 113.99 287.614 115.587 289.65 114.897C291.708 114.199 292.366 111.376 291.456 109.4C290.546 107.424 288.586 106.165 286.649 105.178C283.351 103.498 279.511 102.271 275.981 103.382C273.847 104.054 272.063 105.511 270.336 106.935C268.762 108.233 267.162 109.561 266.061 111.28C263.906 114.648 264.036 119.186 265.878 122.736C267.72 126.286 271.076 128.89 274.774 130.403" fill="#2F2E41"/>
</g>
<defs>
<clipPath id="clip0_1_683">
<rect width="350" height="282.609" fill="white"/>
</clipPath>
</defs>
</svg>
