<svg width="396" height="376" viewBox="0 0 396 376" fill="none" xmlns="http://www.w3.org/2000/svg">
<path d="M369.377 118.876L367.649 118.299L383.504 71.2417C385.937 64.0187 385.386 56.1303 381.97 49.3118C378.555 42.4934 372.555 37.3033 365.291 34.8835L365.29 34.8831L265.028 1.48773C257.764 -0.932088 249.831 -0.383488 242.974 3.01284C236.117 6.40917 230.898 12.375 228.464 19.598L228.464 19.5993L141.496 277.757C140.291 281.333 139.806 285.111 140.07 288.873C140.333 292.636 141.339 296.311 143.03 299.687C144.721 303.063 147.064 306.075 149.926 308.55C152.788 311.026 156.112 312.917 159.709 314.115L159.71 314.115L259.97 347.513C267.233 349.932 275.166 349.383 282.023 345.987C288.88 342.59 294.099 336.624 296.532 329.401L356.364 151.797L358.092 152.372L369.377 118.876Z" fill="#3F3D56"/>
<path d="M364.326 42.7476L351.28 38.3782C351.387 40.0497 351.082 41.7219 350.39 43.2475C349.699 44.7731 348.643 46.1053 347.315 47.1267C345.987 48.1482 344.429 48.8275 342.777 49.1048C341.125 49.3822 339.43 49.2491 337.841 48.7172L280.585 29.5408C278.997 29.0083 277.564 28.0936 276.412 26.8771C275.261 25.6606 274.426 24.1797 273.982 22.5649C273.538 20.95 273.498 19.2507 273.865 17.6167C274.233 15.9827 274.996 14.464 276.089 13.1945L263.904 9.11336C258.496 7.30228 252.59 7.7131 247.486 10.2554C242.381 12.7978 238.496 17.2634 236.684 22.6699L150.114 281.038C148.302 286.444 148.713 292.349 151.256 297.452C153.799 302.556 158.265 306.441 163.673 308.252L264.099 341.887C269.506 343.698 275.412 343.287 280.517 340.745C285.621 338.202 289.507 333.737 291.318 328.33L377.887 69.9619C379.698 64.5553 379.287 58.6506 376.744 53.547C374.201 48.4433 369.734 44.5587 364.327 42.7477L364.326 42.7476Z" fill="white"/>
<path d="M339.265 129.891L231.436 93.2739C230.907 93.0935 230.47 92.7076 230.221 92.201C229.972 91.6944 229.932 91.1084 230.108 90.5716L239.069 63.456C239.247 62.9195 239.627 62.4765 240.127 62.2242C240.627 61.9718 241.205 61.9308 241.735 62.1099L349.564 98.7271C350.093 98.9075 350.53 99.2933 350.779 99.7999C351.028 100.306 351.068 100.893 350.892 101.429L341.931 128.544C341.753 129.08 341.373 129.523 340.873 129.776C340.373 130.028 339.795 130.069 339.265 129.89L339.265 129.891ZM241.467 62.9205C241.149 62.813 240.802 62.8377 240.502 62.9892C240.203 63.1406 239.974 63.4064 239.868 63.7283L230.907 90.843C230.801 91.1651 230.825 91.5167 230.975 91.8206C231.124 92.1246 231.387 92.356 231.704 92.4642L339.533 129.081C339.851 129.189 340.197 129.164 340.497 129.013C340.797 128.861 341.025 128.595 341.132 128.274L350.094 101.16C350.2 100.838 350.175 100.487 350.026 100.183C349.877 99.8787 349.614 99.6472 349.297 99.5391L241.467 62.9205Z" fill="#3F3D56"/>
<path d="M302.884 233.892L196.418 197.707C195.896 197.529 195.464 197.147 195.218 196.647C194.973 196.146 194.933 195.567 195.107 195.036L211.483 145.439C211.659 144.909 212.035 144.471 212.528 144.222C213.022 143.972 213.592 143.932 214.115 144.109L320.582 180.292C321.104 180.471 321.536 180.852 321.782 181.353C322.027 181.853 322.067 182.432 321.893 182.963L305.516 232.561C305.34 233.091 304.965 233.529 304.471 233.778C303.978 234.028 303.407 234.068 302.884 233.892ZM213.851 144.908C213.537 144.802 213.195 144.826 212.899 144.976C212.603 145.126 212.377 145.388 212.272 145.707L195.896 195.304C195.791 195.623 195.815 195.97 195.963 196.27C196.11 196.571 196.369 196.799 196.683 196.906L303.149 233.091C303.463 233.198 303.805 233.173 304.101 233.024C304.397 232.874 304.623 232.611 304.728 232.293L321.105 182.695C321.21 182.376 321.186 182.029 321.038 181.728C320.891 181.428 320.632 181.199 320.318 181.093L213.851 144.908Z" fill="#3F3D56"/>
<path d="M324.282 169.891L276.434 153.84C275.906 153.662 275.469 153.282 275.221 152.782C274.972 152.283 274.932 151.705 275.108 151.175L284.055 124.436C284.232 123.907 284.612 123.47 285.111 123.221C285.61 122.972 286.188 122.932 286.716 123.108L334.566 139.159C335.094 139.337 335.531 139.717 335.779 140.217C336.028 140.717 336.068 141.294 335.892 141.824L326.946 168.563C326.768 169.093 326.388 169.53 325.888 169.779C325.389 170.028 324.811 170.068 324.282 169.891ZM286.449 123.909C286.132 123.803 285.785 123.827 285.486 123.976C285.187 124.126 284.959 124.388 284.852 124.705L275.906 151.445C275.8 151.762 275.825 152.109 275.974 152.409C276.123 152.709 276.385 152.937 276.702 153.043L324.551 169.092C324.869 169.198 325.215 169.174 325.514 169.024C325.814 168.875 326.042 168.613 326.148 168.296L335.095 141.556C335.201 141.239 335.176 140.892 335.027 140.592C334.878 140.292 334.616 140.064 334.299 139.957L286.449 123.909Z" fill="#E6E6E6"/>
<path d="M222.181 278.892L173.46 262.878C172.922 262.701 172.478 262.321 172.225 261.822C171.972 261.324 171.931 260.747 172.11 260.219L189.108 210.433C189.289 209.905 189.676 209.469 190.184 209.221C190.692 208.972 191.28 208.932 191.818 209.108L240.54 225.122C241.078 225.299 241.522 225.679 241.775 226.178C242.028 226.676 242.069 227.253 241.89 227.781L224.891 277.567C224.71 278.095 224.323 278.531 223.815 278.779C223.307 279.028 222.719 279.068 222.181 278.892ZM191.545 209.904C191.222 209.799 190.869 209.823 190.564 209.972C190.259 210.121 190.027 210.383 189.919 210.699L172.92 260.486C172.813 260.803 172.837 261.149 172.989 261.448C173.141 261.747 173.408 261.975 173.731 262.081L222.453 278.095C222.776 278.201 223.129 278.177 223.433 278.028C223.738 277.879 223.97 277.617 224.079 277.3L241.077 227.514C241.185 227.197 241.16 226.851 241.008 226.552C240.856 226.253 240.589 226.025 240.267 225.919L191.545 209.904Z" fill="#E6E6E6"/>
<path d="M281.031 296.893L234.398 281.108C233.883 280.933 233.457 280.559 233.215 280.068C232.973 279.576 232.934 279.008 233.106 278.487L249.375 229.412C249.548 228.892 249.918 228.462 250.405 228.217C250.891 227.973 251.453 227.933 251.969 228.107L298.602 243.892C299.117 244.067 299.543 244.441 299.785 244.932C300.027 245.424 300.066 245.992 299.894 246.513L283.625 295.587C283.452 296.108 283.082 296.538 282.596 296.782C282.109 297.027 281.547 297.067 281.031 296.893ZM251.709 228.892C251.399 228.788 251.062 228.812 250.77 228.959C250.478 229.105 250.256 229.363 250.152 229.675L233.883 278.75C233.78 279.063 233.803 279.404 233.949 279.699C234.094 279.993 234.349 280.218 234.658 280.323L281.292 296.109C281.601 296.213 281.938 296.189 282.23 296.042C282.522 295.895 282.744 295.637 282.848 295.325L299.117 246.25C299.22 245.938 299.197 245.597 299.051 245.302C298.906 245.007 298.651 244.783 298.342 244.678L251.709 228.892Z" fill="#E6E6E6"/>
<path d="M224.5 175C229.194 175 233 171.642 233 167.5C233 163.358 229.194 160 224.5 160C219.806 160 216 163.358 216 167.5C216 171.642 219.806 175 224.5 175Z" fill="#C2F1FB"/>
<path d="M243.919 169.07C243.552 168.956 243.153 168.982 242.807 169.142C242.461 169.302 242.198 169.584 242.075 169.925C241.953 170.265 241.981 170.638 242.153 170.959C242.325 171.281 242.627 171.526 242.994 171.64L308.081 191.93C308.263 191.986 308.454 192.009 308.645 191.997C308.836 191.984 309.022 191.937 309.193 191.858C309.364 191.779 309.517 191.669 309.642 191.534C309.768 191.4 309.864 191.244 309.925 191.075C309.985 190.907 310.01 190.728 309.996 190.551C309.983 190.373 309.933 190.2 309.847 190.041C309.762 189.882 309.644 189.739 309.5 189.623C309.355 189.506 309.188 189.417 309.006 189.36L243.919 169.07Z" fill="#E6E6E6"/>
<path d="M241.862 176.074C241.686 176.014 241.5 175.99 241.315 176.003C241.13 176.016 240.949 176.066 240.783 176.149C240.617 176.232 240.469 176.348 240.347 176.488C240.225 176.629 240.132 176.793 240.073 176.97C240.014 177.147 239.991 177.334 240.003 177.52C240.016 177.706 240.065 177.888 240.148 178.055C240.231 178.222 240.346 178.371 240.486 178.493C240.626 178.616 240.788 178.71 240.964 178.769L268.138 187.926C268.314 187.986 268.5 188.01 268.685 187.997C268.87 187.984 269.051 187.934 269.217 187.851C269.383 187.768 269.531 187.652 269.653 187.512C269.775 187.371 269.868 187.207 269.927 187.03C269.986 186.853 270.009 186.666 269.997 186.48C269.984 186.294 269.935 186.112 269.852 185.945C269.769 185.778 269.654 185.629 269.515 185.507C269.375 185.384 269.212 185.29 269.036 185.231L241.862 176.074Z" fill="#E6E6E6"/>
<path d="M211.378 181.135C210.347 180.796 209.305 181.117 209.055 181.855C208.804 182.592 209.44 183.465 210.471 183.805L298.622 212.865C299.653 213.204 300.695 212.883 300.945 212.145C301.196 211.408 300.56 210.535 299.529 210.195L211.378 181.135Z" fill="#E6E6E6"/>
<path d="M209.378 190.131C208.347 189.802 207.305 190.114 207.055 190.828C206.804 191.542 207.44 192.388 208.471 192.717L296.622 220.869C297.653 221.198 298.695 220.886 298.945 220.172C299.196 219.458 298.56 218.612 297.529 218.283L209.378 190.131Z" fill="#E6E6E6"/>
<path d="M253.5 91C258.747 91 263 87.1944 263 82.5C263 77.8056 258.747 74 253.5 74C248.253 74 244 77.8056 244 82.5C244 87.1944 248.253 91 253.5 91Z" fill="#C2F1FB"/>
<path d="M274.862 83.0732C274.686 83.0143 274.5 82.9905 274.315 83.0034C274.13 83.0163 273.949 83.0655 273.783 83.1483C273.617 83.2311 273.469 83.3458 273.347 83.4859C273.225 83.626 273.132 83.7887 273.073 83.9648C273.014 84.1408 272.991 84.3268 273.003 84.512C273.016 84.6973 273.065 84.8782 273.148 85.0444C273.231 85.2106 273.346 85.3588 273.486 85.4807C273.626 85.6026 273.788 85.6957 273.964 85.7547L337.138 106.927C337.314 106.986 337.5 107.009 337.685 106.997C337.87 106.984 338.051 106.934 338.217 106.852C338.383 106.769 338.531 106.654 338.653 106.514C338.775 106.374 338.868 106.211 338.927 106.035C338.986 105.859 339.009 105.673 338.997 105.488C338.984 105.303 338.935 105.122 338.852 104.956C338.769 104.789 338.654 104.641 338.514 104.519C338.374 104.397 338.212 104.304 338.036 104.245L274.862 83.0732Z" fill="#E6E6E6"/>
<path d="M271.862 92.0675C271.686 92.0131 271.5 91.9913 271.315 92.0031C271.13 92.015 270.949 92.0604 270.783 92.1367C270.617 92.2129 270.469 92.3186 270.347 92.4477C270.225 92.5768 270.132 92.7267 270.073 92.8889C270.014 93.0512 269.991 93.2225 270.003 93.3932C270.016 93.5638 270.065 93.7305 270.148 93.8836C270.231 94.0368 270.346 94.1734 270.486 94.2857C270.626 94.398 270.788 94.4837 270.964 94.5381L298.138 102.933C298.314 102.987 298.5 103.009 298.685 102.997C298.87 102.985 299.051 102.94 299.217 102.863C299.383 102.787 299.531 102.681 299.653 102.552C299.775 102.423 299.868 102.273 299.927 102.111C299.986 101.949 300.009 101.778 299.997 101.607C299.984 101.436 299.935 101.27 299.852 101.116C299.769 100.963 299.654 100.827 299.515 100.714C299.375 100.602 299.212 100.516 299.036 100.462L271.862 92.0675Z" fill="#E6E6E6"/>
<path d="M265 151L221 135.302L237.363 119.894C237.656 119.618 238.012 119.428 238.396 119.345C238.78 119.262 239.177 119.288 239.548 119.421C239.919 119.553 240.251 119.787 240.511 120.1C240.77 120.412 240.948 120.792 241.025 121.2L242.882 130.939L254.768 119.746C255.135 119.4 255.581 119.163 256.061 119.059C256.541 118.956 257.039 118.988 257.504 119.154C257.968 119.32 258.384 119.613 258.708 120.004C259.033 120.395 259.255 120.87 259.353 121.382L265 151ZM222.616 134.952L263.908 149.684L258.545 121.559C258.476 121.198 258.319 120.863 258.09 120.588C257.862 120.312 257.569 120.106 257.241 119.989C256.914 119.872 256.563 119.849 256.225 119.923C255.887 119.996 255.572 120.162 255.314 120.406L242.358 132.604L240.217 121.376C240.168 121.118 240.056 120.879 239.893 120.682C239.73 120.485 239.52 120.337 239.287 120.254C239.053 120.171 238.802 120.154 238.56 120.206C238.319 120.259 238.094 120.378 237.909 120.552L222.616 134.952Z" fill="#E6E6E6"/>
<path d="M266.092 150.892L217.458 134.842C216.921 134.664 216.477 134.283 216.224 133.784C215.972 133.284 215.931 132.706 216.11 132.177L225.203 105.436C225.383 104.907 225.77 104.47 226.277 104.221C226.784 103.972 227.371 103.932 227.908 104.108L276.542 120.159C277.079 120.336 277.523 120.717 277.776 121.217C278.028 121.716 278.069 122.294 277.89 122.824L268.797 149.564C268.616 150.093 268.23 150.53 267.723 150.779C267.216 151.028 266.629 151.068 266.092 150.892ZM227.637 104.906C227.314 104.8 226.962 104.825 226.658 104.974C226.354 105.124 226.122 105.386 226.014 105.703L216.921 132.444C216.813 132.762 216.838 133.109 216.99 133.408C217.141 133.708 217.408 133.936 217.73 134.043L266.364 150.093C266.687 150.199 267.039 150.175 267.343 150.025C267.647 149.876 267.879 149.614 267.987 149.296L277.08 122.555C277.188 122.238 277.163 121.891 277.012 121.591C276.86 121.292 276.594 121.063 276.272 120.957L227.637 104.906Z" fill="#E6E6E6"/>
<path d="M198.925 222.08C198.744 222.016 198.551 221.99 198.36 222.004C198.169 222.017 197.982 222.071 197.81 222.161C197.638 222.251 197.485 222.376 197.359 222.529C197.233 222.681 197.137 222.859 197.076 223.051C197.015 223.242 196.99 223.445 197.004 223.647C197.017 223.849 197.068 224.046 197.154 224.227C197.239 224.408 197.358 224.57 197.503 224.702C197.648 224.835 197.816 224.936 197.998 225L226.078 234.921C226.445 235.05 226.846 235.02 227.192 234.838C227.538 234.656 227.801 234.336 227.924 233.949C228.047 233.563 228.02 233.14 227.847 232.775C227.675 232.409 227.372 232.131 227.006 232.001L198.925 222.08Z" fill="#E6E6E6"/>
<path d="M196.801 229.087C196.631 229.017 196.451 228.989 196.272 229.004C196.093 229.019 195.918 229.076 195.758 229.173C195.597 229.27 195.453 229.405 195.336 229.569C195.218 229.734 195.128 229.925 195.071 230.131C195.014 230.338 194.991 230.556 195.003 230.773C195.016 230.991 195.064 231.203 195.144 231.398C195.224 231.593 195.335 231.767 195.47 231.91C195.606 232.053 195.763 232.162 195.934 232.231L222.204 242.916C222.547 243.054 222.921 243.021 223.245 242.825C223.568 242.629 223.814 242.285 223.929 241.869C224.044 241.453 224.018 240.998 223.858 240.605C223.697 240.212 223.414 239.912 223.072 239.772L196.801 229.087Z" fill="#E6E6E6"/>
<path d="M274.078 285.921C274.445 286.05 274.846 286.02 275.192 285.838C275.538 285.656 275.801 285.336 275.924 284.949C276.047 284.562 276.02 284.14 275.847 283.775C275.675 283.409 275.372 283.131 275.006 283.001L246.922 273.079C246.555 272.95 246.154 272.98 245.808 273.162C245.462 273.344 245.199 273.664 245.076 274.051C244.953 274.438 244.98 274.86 245.153 275.225C245.325 275.591 245.628 275.869 245.994 275.999L274.078 285.921Z" fill="#E6E6E6"/>
<path d="M277.075 275.932C277.257 275.987 277.449 276.009 277.64 275.997C277.832 275.985 278.018 275.94 278.19 275.864C278.362 275.787 278.515 275.682 278.641 275.553C278.767 275.424 278.863 275.273 278.924 275.111C278.985 274.949 279.01 274.777 278.996 274.607C278.983 274.436 278.932 274.269 278.846 274.116C278.761 273.963 278.642 273.826 278.497 273.714C278.352 273.601 278.184 273.516 278.002 273.462L249.925 265.068C249.743 265.013 249.551 264.991 249.36 265.003C249.168 265.015 248.982 265.06 248.81 265.136C248.638 265.213 248.485 265.318 248.359 265.447C248.233 265.576 248.137 265.727 248.076 265.889C248.015 266.051 247.99 266.223 248.004 266.393C248.017 266.564 248.068 266.731 248.154 266.884C248.239 267.037 248.358 267.174 248.503 267.286C248.648 267.399 248.816 267.484 248.998 267.538L277.075 275.932Z" fill="#E6E6E6"/>
<path d="M319.137 148.932C319.313 148.987 319.499 149.009 319.684 148.997C319.869 148.985 320.05 148.94 320.216 148.864C320.383 148.788 320.531 148.682 320.653 148.553C320.775 148.424 320.868 148.273 320.927 148.111C320.986 147.949 321.01 147.777 320.997 147.607C320.984 147.436 320.934 147.269 320.851 147.116C320.769 146.963 320.654 146.826 320.514 146.714C320.373 146.601 320.211 146.516 320.034 146.462L292.863 138.068C292.687 138.013 292.501 137.991 292.316 138.003C292.131 138.015 291.95 138.06 291.784 138.136C291.617 138.212 291.469 138.318 291.347 138.447C291.225 138.576 291.132 138.727 291.073 138.889C291.014 139.051 290.99 139.223 291.003 139.393C291.016 139.564 291.066 139.731 291.149 139.884C291.231 140.037 291.346 140.174 291.486 140.286C291.627 140.399 291.79 140.484 291.966 140.538L319.137 148.932Z" fill="#E6E6E6"/>
<path d="M318.075 155.926C318.257 155.985 318.449 156.009 318.64 155.997C318.832 155.984 319.018 155.935 319.19 155.851C319.362 155.768 319.515 155.653 319.641 155.512C319.767 155.371 319.863 155.207 319.924 155.03C319.985 154.853 320.01 154.666 319.996 154.48C319.983 154.294 319.932 154.112 319.846 153.944C319.761 153.777 319.642 153.628 319.497 153.506C319.352 153.383 319.184 153.29 319.002 153.231L290.925 144.074C290.743 144.015 290.551 143.991 290.36 144.003C290.168 144.016 289.982 144.065 289.81 144.149C289.638 144.232 289.485 144.347 289.359 144.488C289.233 144.629 289.137 144.793 289.076 144.97C289.015 145.147 288.99 145.334 289.004 145.52C289.017 145.706 289.068 145.888 289.154 146.056C289.239 146.223 289.358 146.372 289.503 146.494C289.648 146.617 289.816 146.71 289.998 146.769L318.075 155.926Z" fill="#E6E6E6"/>
<path d="M87.9909 140.102C95.9943 140.102 102.482 133.634 102.482 125.656C102.482 117.677 95.9943 111.209 87.9909 111.209C79.9874 111.209 73.4993 117.677 73.4993 125.656C73.4993 133.634 79.9874 140.102 87.9909 140.102Z" fill="#9F616A"/>
<path d="M79.6141 127.443C80.7628 127.374 81.8846 127.761 83.0255 127.913C87.1071 128.453 91.3526 125.5 92.254 121.496C92.3263 120.962 92.4858 120.444 92.7262 119.963C93.3545 118.94 94.7849 118.745 95.9641 118.98C97.1433 119.216 98.2615 119.766 99.4625 119.829C101.317 119.926 103.097 118.788 104.085 117.22C105.019 115.604 105.416 113.734 105.22 111.879L104.331 112.809C103.97 112.047 103.83 111.199 103.928 110.362C103.457 110.237 102.962 110.235 102.489 110.355C102.017 110.476 101.584 110.715 101.231 111.05C100.447 111.133 101.039 109.601 100.457 109.072C100.174 108.898 99.8359 108.835 99.5089 108.895C97.8412 108.911 96.4922 107.64 95.1783 106.616C92.9016 104.847 90.2391 103.636 87.4062 103.082C85.5232 102.716 83.5209 102.657 81.7353 103.354C80.2937 103.999 78.9927 104.919 77.9054 106.062C75.1096 108.74 72.6338 111.891 71.471 115.58C70.5254 118.601 70.4986 121.834 71.394 124.87C71.8625 126.447 73.2753 131.847 75.3431 131.973C77.9396 132.132 76.3803 127.635 79.6141 127.443Z" fill="#2F2E41"/>
<path d="M59.5467 241.317C60.3504 240.768 61.0234 240.05 61.5185 239.213C62.0136 238.376 62.3186 237.442 62.4121 236.475C62.5056 235.508 62.3853 234.532 62.0597 233.617C61.734 232.701 61.211 231.868 60.5274 231.176L63.1129 173.643L49.9494 175.116L50.7143 231.393C49.6235 232.615 49.0204 234.193 49.019 235.829C49.0177 237.464 49.6184 239.044 50.7072 240.267C51.796 241.491 53.2972 242.274 54.9265 242.468C56.5557 242.662 58.1996 242.253 59.5467 241.319V241.317Z" fill="#A0616A"/>
<path d="M83.5605 338.708L91.0526 340.021L98.4573 311.837L88.641 309.899L83.5605 338.708Z" fill="#A0616A"/>
<path d="M104.226 349.499L80.6776 345.352L82.2847 336.283L96.7352 338.827C99.1481 339.252 101.293 340.615 102.698 342.617C104.103 344.618 104.652 347.094 104.226 349.499Z" fill="#2F2E41"/>
<path d="M62.997 342.447H70.6033L74.2219 313.198H62.9956L62.997 342.447Z" fill="#A0616A"/>
<path d="M85.2669 349.488H61.3597V340.28H76.0302C78.4799 340.28 80.8293 341.25 82.5615 342.977C84.2937 344.704 85.2669 347.046 85.2669 349.488Z" fill="#2F2E41"/>
<path d="M94.7344 331.963C94.6157 331.964 94.4972 331.957 94.3793 331.943L85.4258 331.208C84.6282 331.115 83.9005 330.709 83.4027 330.081C82.905 329.453 82.6781 328.653 82.7718 327.858C82.7777 327.808 82.7849 327.758 82.7934 327.708L91.6841 283.99L86.0978 254.626C86.0525 254.387 85.9221 254.173 85.7306 254.023C85.539 253.872 85.2994 253.796 85.0559 253.808C84.8124 253.82 84.5815 253.92 84.4058 254.088C84.2302 254.257 84.1217 254.483 84.1005 254.725L75.874 329.336C75.7973 330.122 75.4173 330.848 74.8142 331.36C74.2112 331.872 73.4321 332.13 72.6415 332.081L64.2066 331.767C63.4674 331.715 62.773 331.395 62.2544 330.867C61.7359 330.34 61.4291 329.641 61.392 328.903L62.0658 238.743L105.798 233.294L108.853 280.327L108.84 280.377L97.6769 329.657C97.5163 330.314 97.139 330.899 96.6055 331.317C96.072 331.735 95.4131 331.963 94.7344 331.963Z" fill="#2F2E41"/>
<path d="M90.8426 245.604C88.4586 245.619 86.1203 244.952 84.1045 243.683C76.7226 239.084 68.3382 240.912 63.9971 242.412C63.5663 242.563 63.107 242.614 62.6535 242.563C62.2001 242.511 61.7641 242.358 61.3783 242.115C60.997 241.876 60.6748 241.555 60.4358 241.175C60.1968 240.794 60.0473 240.365 59.9983 239.919L52.1061 169.637C50.783 157.862 57.8986 146.791 69.0247 143.314C69.4427 143.183 69.8676 143.059 70.2995 142.942C73.7619 142.007 77.3879 141.839 80.9224 142.45C84.4569 143.062 87.814 144.438 90.7575 146.482C93.756 148.549 96.2638 151.245 98.1044 154.381C99.945 157.518 101.074 161.018 101.411 164.636L108.058 235.387C108.103 235.845 108.041 236.307 107.876 236.738C107.711 237.168 107.448 237.554 107.108 237.865C104.778 240.014 98.017 245.603 90.8426 245.604Z" fill="#C2F1FB"/>
<path d="M66.8053 184.708L48.9957 182.756C48.4889 182.701 48.0002 182.537 47.5627 182.276C47.1252 182.015 46.7493 181.664 46.4604 181.245C46.1716 180.826 45.9767 180.35 45.889 179.85C45.8013 179.349 45.8228 178.835 45.9521 178.344L50.4853 161.12C50.6222 159.837 51.0113 158.593 51.6306 157.46C52.2499 156.327 53.0871 155.326 54.0944 154.516C55.1018 153.705 56.2595 153.101 57.5013 152.737C58.7432 152.372 60.0449 152.256 61.3321 152.393C62.6193 152.53 63.8666 152.92 65.0029 153.538C66.1391 154.156 67.142 154.992 67.9542 155.996C68.7664 157.001 69.372 158.156 69.7364 159.394C70.1007 160.632 70.2167 161.93 70.0777 163.213C70.0737 163.25 70.0695 163.287 70.0651 163.324L70.738 181.06C70.7571 181.568 70.6661 182.074 70.4714 182.544C70.2767 183.013 69.9827 183.435 69.6095 183.782C69.2362 184.128 68.7926 184.39 68.3087 184.55C67.8248 184.709 67.312 184.763 66.8053 184.708Z" fill="#C2F1FB"/>
<path d="M107.984 238.854C108.716 238.212 109.297 237.418 109.687 236.528C110.078 235.638 110.268 234.674 110.244 233.702C110.22 232.731 109.982 231.777 109.549 230.907C109.115 230.038 108.495 229.273 107.732 228.668L103.344 171.244L90.4453 174.139L98.017 230.061C97.0823 231.405 96.6746 233.044 96.8711 234.668C97.0676 236.291 97.8548 237.787 99.0833 238.87C100.312 239.954 101.896 240.551 103.537 240.548C105.178 240.545 106.76 239.942 107.984 238.854L107.984 238.854Z" fill="#A0616A"/>
<path d="M85.4995 181.098C85.1259 180.752 84.8317 180.329 84.637 179.859C84.4423 179.389 84.3517 178.883 84.3713 178.375L85.0442 160.639C84.767 158.059 85.5254 155.474 87.1538 153.449C88.7823 151.425 91.1483 150.125 93.735 149.834C96.3218 149.542 98.919 150.284 100.959 151.895C103 153.507 104.317 155.858 104.624 158.435L109.157 175.658C109.287 176.15 109.308 176.664 109.22 177.164C109.133 177.665 108.938 178.141 108.649 178.559C108.36 178.978 107.984 179.33 107.547 179.591C107.109 179.851 106.62 180.015 106.114 180.071L88.304 182.022C87.7972 182.078 87.2843 182.024 86.8003 181.864C86.3163 181.705 85.8726 181.443 85.4995 181.096V181.098Z" fill="#C2F1FB"/>
<path d="M336 349H0V351H336V349Z" fill="#CACACA"/>
</svg>
